<svg t="1672843507171" class="icon" viewBox="0 0 1024 1024" version="1.1" xmlns="http://www.w3.org/2000/svg" p-id="4761" width="200" height="200"><path d="M288 192a96 96 0 1 1 0-192 96 96 0 0 1 0 192z m0 277.312a96 96 0 1 1 0-192 96 96 0 0 1 0 192z m0 277.376a96 96 0 1 1 0-192 96 96 0 0 1 0 192zM288 1024a96 96 0 1 1 0-192 96 96 0 0 1 0 192z m448-832a96 96 0 1 1 0-192 96 96 0 0 1 0 192z m0 277.312a96 96 0 1 1 0-192 96 96 0 0 1 0 192z m0 277.376a96 96 0 1 1 0-192 96 96 0 0 1 0 192z m0 277.312a96 96 0 1 1 0-192 96 96 0 0 1 0 192z" fill="#707070" p-id="4762"></path></svg>